<svg width="103" height="103" viewBox="0 0 103 103" fill="none" xmlns="http://www.w3.org/2000/svg">
<path d="M86.9062 24.9453H73.2266L69.9676 15.8121C69.7424 15.1871 69.3298 14.6469 68.7861 14.2653C68.2424 13.8836 67.5942 13.6791 66.9299 13.6797H36.0701C34.7122 13.6797 33.4951 14.5347 33.0425 15.8121L29.7734 24.9453H16.0938C11.6479 24.9453 8.04688 28.5463 8.04688 32.9922V78.8594C8.04688 83.3053 11.6479 86.9062 16.0938 86.9062H86.9062C91.3521 86.9062 94.9531 83.3053 94.9531 78.8594V32.9922C94.9531 28.5463 91.3521 24.9453 86.9062 24.9453ZM87.7109 78.8594C87.7109 79.3019 87.3488 79.664 86.9062 79.664H16.0938C15.6512 79.664 15.2891 79.3019 15.2891 78.8594V32.9922C15.2891 32.5496 15.6512 32.1875 16.0938 32.1875H34.8731L36.5932 27.3795L38.8966 20.9219H64.0934L66.3968 27.3795L68.1168 32.1875H86.9062C87.3488 32.1875 87.7109 32.5496 87.7109 32.9922V78.8594ZM51.5 38.625C42.6082 38.625 35.4062 45.8269 35.4062 54.7187C35.4062 63.6105 42.6082 70.8125 51.5 70.8125C60.3918 70.8125 67.5938 63.6105 67.5938 54.7187C67.5938 45.8269 60.3918 38.625 51.5 38.625ZM51.5 64.375C46.1689 64.375 41.8438 60.0498 41.8438 54.7187C41.8438 49.3877 46.1689 45.0625 51.5 45.0625C56.8311 45.0625 61.1562 49.3877 61.1562 54.7187C61.1562 60.0498 56.8311 64.375 51.5 64.375Z" fill="white"/>
</svg>
